<?xml version="1.0" standalone="no"?>
<!DOCTYPE svg PUBLIC "-//W3C//DTD SVG 20010904//EN"
 "http://www.w3.org/TR/2001/REC-SVG-20010904/DTD/svg10.dtd">
<svg version="1.0" xmlns="http://www.w3.org/2000/svg"
 width="275.000000pt" height="231.000000pt" viewBox="0 0 275.000000 231.000000"
 preserveAspectRatio="xMidYMid meet">
<metadata>
Created by potrace 1.15, written by Peter Selinger 2001-2017
</metadata>
<g transform="translate(0.000000,231.000000) scale(0.100000,-0.100000)"
fill="#000000" stroke="none">
<path d="M2420 2287 c-17 -9 -34 -37 -59 -100 -31 -77 -38 -88 -65 -96 -43
-11 -53 -5 -60 35 -8 39 -30 54 -79 54 -23 0 -41 8 -57 25 -37 39 -95 56 -178
52 -74 -4 -83 -9 -113 -59 -6 -12 -22 -18 -45 -18 -28 0 -36 -5 -45 -27 -6
-15 -16 -31 -22 -35 -23 -14 -131 -6 -157 12 -23 16 -81 17 -775 15 -412 -1
-753 -3 -758 -3 -4 -1 -6 -298 -5 -659 l3 -658 73 1 c39 0 67 -3 62 -6 -7 -4
-10 -38 -8 -85 l3 -79 80 -1 c48 -1 88 -7 101 -14 11 -8 38 -40 60 -72 21 -32
45 -61 53 -64 9 -4 24 6 39 25 13 16 27 30 32 30 4 0 11 -18 15 -40 7 -41 38
-90 58 -90 7 0 29 -5 50 -11 30 -8 45 -21 69 -60 17 -27 38 -50 47 -51 9 0 23
-2 31 -3 27 -3 45 13 46 42 2 63 5 73 24 83 23 12 77 -10 87 -36 9 -23 63 -47
110 -49 26 -1 51 -9 63 -20 14 -13 38 -20 73 -21 29 -1 52 -3 52 -4 0 -1 16
-3 35 -4 24 -2 45 5 68 22 l32 24 35 -23 c20 -13 45 -44 57 -69 21 -44 72
-103 81 -94 2 3 24 -8 48 -24 24 -16 58 -37 76 -47 18 -10 29 -23 26 -28 -3
-6 -1 -7 5 -3 6 3 32 -5 58 -19 47 -25 118 -34 129 -15 6 9 8 144 2 185 -1 12
3 19 11 17 6 -1 11 1 10 5 -2 5 7 18 18 29 21 21 21 24 8 80 -16 68 -18 114
-5 114 8 0 41 68 47 96 10 51 77 154 99 154 6 0 23 10 38 23 28 22 30 29 42
129 5 43 11 59 24 63 38 12 53 42 55 108 3 73 26 119 91 180 43 40 127 87 157
87 10 0 20 9 23 23 4 19 13 129 15 178 0 9 13 30 29 46 25 26 28 36 24 72 -3
25 1 57 11 81 9 22 16 64 16 93 0 53 2 57 75 174 21 34 30 61 30 93 1 41 3 45
28 48 16 2 27 9 27 19 0 11 -7 14 -25 11 l-24 -5 16 36 c9 20 18 60 21 89 l4
52 -149 0 c-98 0 -156 -4 -173 -13z m200 -18 l90 0 0 -27 c0 -16 -9 -46 -19
-68 -11 -22 -22 -68 -25 -101 -6 -64 -32 -125 -68 -155 -11 -10 -18 -18 -15
-18 3 0 -1 -17 -9 -37 -9 -20 -17 -62 -18 -93 -1 -30 -8 -65 -15 -78 -7 -13
-11 -43 -10 -67 2 -36 -2 -50 -24 -74 -22 -25 -27 -42 -31 -98 -2 -37 -5 -70
-6 -73 -1 -3 -1 -17 0 -32 1 -27 -1 -29 -60 -43 -35 -9 -57 -25 -126 -92 -69
-68 -86 -102 -89 -181 -2 -60 -4 -65 -34 -84 -30 -19 -40 -39 -44 -85 0 -13
-4 -23 -7 -23 -3 0 -5 -17 -5 -38 1 -40 -9 -56 -42 -66 -28 -9 -91 -79 -99
-111 -3 -14 -11 -25 -17 -25 -6 0 -8 -3 -4 -6 3 -4 0 -22 -8 -40 -8 -19 -15
-38 -16 -42 -6 -23 -24 -52 -32 -52 -6 0 -7 -22 -3 -58 4 -31 8 -66 9 -77 2
-11 6 -26 10 -32 5 -7 5 -13 0 -13 -4 0 -20 -10 -34 -23 -25 -21 -25 -25 -21
-119 l4 -98 -30 0 c-17 0 -34 5 -37 10 -4 6 -10 8 -15 5 -5 -3 -11 -1 -14 4
-3 5 -32 24 -64 42 -31 18 -69 40 -83 49 -14 8 -44 26 -67 40 -28 17 -46 36
-53 58 -6 18 -30 52 -52 76 -34 34 -49 42 -75 41 -19 -1 -38 -8 -43 -16 -5 -8
-9 -9 -9 -4 0 6 -5 2 -11 -8 -8 -13 -18 -16 -42 -12 -18 2 -54 7 -81 9 -27 3
-52 9 -55 14 -10 14 -42 24 -91 28 -31 3 -53 12 -70 29 -44 45 -84 75 -90 67
-3 -4 -14 -9 -25 -11 -37 -6 -55 -22 -56 -49 -1 -15 -2 -38 -3 -51 -2 -40 -33
-35 -61 10 -30 46 -64 70 -119 84 -29 7 -41 15 -40 27 1 10 -2 15 -7 12 -5 -3
-9 1 -10 8 0 7 -3 22 -6 33 -3 11 -6 30 -7 42 0 11 -4 19 -7 17 -3 -2 -11 8
-17 21 -6 13 -23 27 -37 31 -14 3 -25 9 -26 13 0 3 -2 14 -4 23 -2 10 1 21 6
24 11 6 -50 50 -78 56 -11 2 -28 -8 -42 -25 -19 -22 -26 -25 -38 -16 -7 7 -12
18 -9 26 3 8 2 11 -4 8 -5 -3 -16 7 -24 22 -30 58 -79 80 -169 78 l-57 -2 0
633 1 632 49 -1 c28 0 50 -5 50 -11 0 -8 3 -8 8 0 9 13 350 13 371 0 9 -6 12
-5 8 1 -9 14 214 14 232 -1 10 -7 13 -8 8 0 -8 14 302 16 320 2 7 -5 13 -5 17
0 7 12 134 13 142 1 3 -5 11 -6 17 -2 7 5 67 9 135 9 100 1 126 -2 139 -14 19
-20 154 -28 184 -11 11 5 24 21 29 35 7 18 17 24 39 24 20 0 37 9 55 31 14 17
26 34 26 39 0 5 25 8 55 7 30 -2 55 1 55 5 0 5 16 2 35 -6 19 -8 35 -12 35 -8
0 4 4 2 8 -3 23 -32 77 -65 107 -65 39 0 56 -18 57 -59 1 -27 5 -31 30 -32 15
-1 34 -2 41 -3 15 -2 59 24 70 41 5 8 12 11 17 8 4 -3 6 3 4 12 -2 10 9 47 24
83 27 64 28 65 72 70 25 3 48 4 53 2 4 -2 48 -3 97 -3z m-2407 -1488 c19 -21
38 -48 42 -60 3 -12 11 -21 16 -21 5 0 9 -4 9 -8 0 -5 -26 -8 -57 -8 l-58 1
-3 68 c-2 37 1 67 6 67 5 0 25 -18 45 -39z m178 -61 c11 -6 19 -21 19 -35 0
-14 8 -32 18 -40 9 -9 31 -27 47 -41 17 -14 25 -23 19 -20 -6 3 -22 -6 -34
-20 l-24 -24 -23 27 c-12 16 -22 32 -23 37 0 17 -60 66 -74 60 -8 -3 -17 -1
-21 5 -3 6 0 9 8 6 7 -3 24 7 37 25 26 34 25 34 51 20z"/>
<path d="M2726 1736 c-10 -19 -22 -34 -25 -32 -3 2 -7 -19 -9 -48 -6 -92 -19
-156 -32 -156 -4 0 -4 -21 0 -46 7 -42 5 -49 -20 -73 -25 -23 -29 -36 -35
-111 -4 -47 -7 -93 -7 -102 1 -18 -24 -32 -39 -22 -5 3 -9 1 -9 -4 0 -6 -11
-13 -25 -16 -29 -7 -52 -24 -116 -86 -62 -60 -81 -101 -84 -177 -2 -64 -18
-92 -54 -93 -8 0 -11 -3 -8 -7 4 -3 2 -12 -4 -19 -5 -7 -12 -34 -14 -61 -4
-49 -12 -94 -17 -98 -2 -1 -19 -11 -38 -23 -52 -31 -79 -63 -104 -126 -13 -31
-25 -53 -28 -51 -3 3 -3 -6 -1 -20 3 -15 1 -25 -6 -25 -6 0 -11 -6 -11 -14 0
-7 -7 -19 -15 -26 -18 -15 -19 -60 -3 -130 12 -51 12 -52 -20 -81 -32 -30 -37
-44 -26 -73 10 -25 37 -20 29 5 -6 17 1 29 28 54 l34 32 -17 81 c-17 78 -17
82 1 98 10 9 26 39 35 68 33 102 61 145 119 182 30 19 55 40 56 47 0 7 2 19 3
27 2 8 6 38 9 65 5 41 12 55 41 80 33 28 36 34 40 103 4 60 10 80 32 110 48
65 141 138 185 145 45 7 56 17 57 50 0 18 3 59 6 92 3 33 5 65 6 70 0 6 12 25
27 42 23 26 27 39 24 83 -2 32 3 59 12 73 8 13 15 42 15 66 1 52 11 102 24
118 5 6 8 24 6 38 -3 26 -3 26 -22 -9z"/>
<path d="M630 408 c0 -2 7 -27 14 -57 18 -66 39 -90 88 -97 39 -7 64 -26 111
-87 22 -29 33 -36 56 -33 41 5 49 12 45 43 -4 41 6 72 27 84 23 12 48 0 102
-47 20 -19 47 -34 60 -35 48 -1 77 -8 103 -26 17 -10 49 -19 79 -19 27 -1 64
-4 82 -7 23 -4 36 0 49 14 9 10 23 19 31 19 16 0 17 16 2 26 -6 3 -23 -3 -39
-14 -15 -11 -36 -19 -46 -17 -11 2 -19 4 -19 5 0 1 -23 2 -50 3 -30 1 -62 10
-79 20 -15 10 -46 20 -69 22 -23 2 -43 4 -44 5 -2 2 -9 3 -15 4 -7 0 -17 11
-22 22 -6 12 -25 28 -43 35 -18 7 -33 16 -33 20 0 13 -65 4 -80 -11 -17 -16
-22 -35 -23 -85 -1 -45 -31 -43 -61 3 -33 52 -54 68 -106 82 -59 16 -67 23
-75 71 -4 23 -14 43 -26 49 -10 6 -19 9 -19 8z"/>
<path d="M1557 126 c12 -9 24 -30 28 -46 10 -47 46 -80 86 -80 l34 1 -37 19
c-24 13 -41 31 -49 54 -7 19 -24 40 -38 47 -41 21 -48 22 -24 5z"/>
</g>
</svg>
