<?xml version="1.0" standalone="no"?>
<!DOCTYPE svg PUBLIC "-//W3C//DTD SVG 20010904//EN"
 "http://www.w3.org/TR/2001/REC-SVG-20010904/DTD/svg10.dtd">
<svg version="1.0" xmlns="http://www.w3.org/2000/svg"
 width="180.000000pt" height="255.000000pt" viewBox="0 0 180.000000 255.000000"
 preserveAspectRatio="xMidYMid meet">
<metadata>
Created by potrace 1.15, written by Peter Selinger 2001-2017
</metadata>
<g transform="translate(0.000000,255.000000) scale(0.100000,-0.100000)"
fill="#000000" stroke="none">
<path d="M543 2538 c-4 -7 -11 -35 -15 -63 -5 -27 -12 -70 -16 -95 -5 -25 -16
-57 -26 -72 -12 -19 -15 -36 -11 -62 19 -97 0 -269 -33 -311 -19 -23 -22 -36
-16 -70 5 -37 1 -49 -30 -98 -20 -31 -46 -61 -57 -67 -11 -7 -25 -25 -31 -41
-15 -43 -39 -36 -105 29 -54 54 -62 59 -115 65 -97 12 -88 79 -88 -644 l0
-639 115 0 115 0 0 -60 0 -60 45 0 45 0 0 -144 c0 -122 2 -145 16 -150 9 -3
63 -6 120 -6 l104 0 0 -25 c0 -14 5 -25 10 -25 6 0 10 11 10 25 l0 25 264 0
c166 0 267 -4 271 -10 16 -26 124 0 168 41 42 39 141 18 187 -41 29 -37 35
-40 78 -39 26 1 39 3 30 6 -16 4 -16 6 0 31 45 73 46 74 117 78 92 5 105 10
105 42 -1 35 -30 98 -63 138 -34 40 -34 64 -2 94 14 13 25 33 25 46 0 36 -30
96 -51 101 -11 3 -22 18 -27 37 -5 19 -18 36 -35 44 -18 9 -27 21 -27 37 0 14
-16 45 -35 71 -36 47 -43 68 -25 79 18 11 10 46 -20 91 -27 38 -36 44 -66 44
-47 0 -74 43 -74 120 0 61 -19 100 -49 100 -11 0 -22 7 -25 16 -24 63 26 76
65 17 18 -27 36 -40 70 -50 48 -13 59 -27 73 -95 4 -17 16 -29 36 -36 28 -10
30 -15 30 -59 1 -96 44 -169 92 -159 24 5 32 0 55 -35 23 -36 25 -42 13 -65
-12 -22 -11 -30 10 -72 16 -31 25 -41 27 -30 2 9 -2 30 -11 45 -9 19 -11 34
-5 44 16 25 10 55 -21 98 -27 36 -35 42 -63 39 -29 -3 -34 1 -54 42 -15 28
-23 62 -23 95 0 53 -12 75 -42 75 -11 0 -20 10 -24 28 -16 75 -50 112 -103
112 -13 0 -30 15 -46 40 -20 31 -32 40 -53 40 -61 0 -102 60 -102 148 0 26 -5
53 -12 60 -7 7 -11 33 -9 60 2 37 -3 56 -23 85 -29 43 -32 64 -12 93 17 24 7
94 -23 152 -19 38 -92 112 -110 112 -25 0 -41 -15 -42 -39 -1 -22 -5 -17 -27
29 -24 49 -27 65 -25 148 l2 93 -34 38 c-19 21 -35 48 -35 61 0 37 -31 90 -68
115 -44 30 -62 19 -62 -34 0 -33 -29 -95 -30 -64 0 7 -13 26 -30 43 -16 17
-32 46 -36 67 -8 47 -39 96 -75 117 -33 19 -45 20 -56 4z m70 -57 c13 -16 27
-49 31 -73 5 -28 18 -54 38 -75 31 -32 31 -34 32 -135 1 -92 4 -109 29 -155
31 -60 53 -67 68 -23 14 38 20 37 59 -1 63 -64 91 -149 65 -199 -19 -37 -14
-68 18 -111 17 -24 21 -41 19 -88 -2 -45 1 -60 13 -65 11 -4 15 -20 15 -61 0
-87 41 -145 102 -145 21 0 33 -9 52 -39 18 -28 34 -41 58 -46 52 -11 78 -32
78 -63 0 -34 17 -58 50 -75 22 -11 26 -21 30 -77 3 -44 13 -77 28 -102 24 -39
29 -41 72 -39 20 2 30 -6 48 -37 19 -35 20 -40 6 -60 -13 -19 -13 -25 2 -54 9
-18 27 -44 39 -58 15 -15 25 -40 27 -65 2 -23 8 -41 16 -41 6 -1 18 -2 25 -3
7 0 17 -16 22 -34 6 -17 20 -36 31 -41 12 -5 27 -25 33 -43 11 -30 10 -36 -13
-64 -37 -44 -35 -87 8 -138 33 -39 63 -107 53 -117 -2 -3 -35 -6 -73 -8 -38
-2 -72 -4 -76 -5 -4 0 -26 -26 -48 -56 -22 -30 -45 -55 -50 -55 -5 0 -16 13
-25 30 -20 40 -66 62 -140 67 -56 5 -63 3 -99 -26 -44 -35 -100 -49 -127 -32
-13 8 -131 11 -399 11 l-380 0 0 210 0 210 -160 0 -160 0 0 616 0 615 47 -7
c54 -8 94 -35 142 -94 49 -61 63 -57 150 49 76 94 94 129 88 177 -4 35 0 50
16 71 32 40 54 243 35 317 -6 22 -2 38 12 61 11 19 20 50 20 73 0 22 5 44 10
47 6 3 10 24 10 46 0 48 18 51 53 10z m226 -115 c22 -23 34 -47 38 -75 4 -29
16 -52 37 -73 30 -31 31 -34 31 -127 0 -83 4 -104 27 -154 30 -63 57 -74 68
-27 8 29 25 28 58 -3 59 -54 101 -168 76 -202 -21 -29 -17 -71 12 -115 22 -34
26 -47 21 -84 -5 -32 -2 -47 8 -56 10 -8 15 -30 15 -61 0 -26 4 -59 10 -73 8
-21 6 -26 -6 -26 -13 0 -29 15 -78 71 -9 11 -29 19 -45 19 -46 0 -81 49 -81
114 0 28 -6 60 -14 71 -8 12 -13 44 -13 75 1 44 -4 63 -27 97 -28 42 -28 43
-11 69 49 74 -57 274 -145 274 -24 0 -30 -4 -30 -22 -1 -23 -1 -23 -16 -3 -27
36 -38 96 -23 135 14 39 28 103 36 168 3 23 8 42 12 42 4 0 22 -15 40 -34z
m-519 -1947 l0 -50 -32 3 c-32 3 -33 5 -36 51 l-3 47 35 0 36 0 0 -51z"/>
</g>
</svg>
