<?xml version="1.0" standalone="no"?>
<!DOCTYPE svg PUBLIC "-//W3C//DTD SVG 20010904//EN"
 "http://www.w3.org/TR/2001/REC-SVG-20010904/DTD/svg10.dtd">
<svg version="1.0" xmlns="http://www.w3.org/2000/svg"
 width="264.000000pt" height="191.000000pt" viewBox="0 0 264.000000 191.000000"
 preserveAspectRatio="xMidYMid meet">
<metadata>
Created by potrace 1.15, written by Peter Selinger 2001-2017
</metadata>
<g transform="translate(0.000000,191.000000) scale(0.100000,-0.100000)"
fill="#000000" stroke="none">
<path d="M15 1889 c-9 -13 -10 -1507 -2 -1515 3 -3 19 2 36 10 16 9 36 16 43
16 14 0 69 -72 72 -95 4 -26 13 -27 55 -5 36 18 41 25 43 58 1 20 2 46 2 57 2
22 25 30 63 20 16 -4 23 -11 19 -20 -3 -8 0 -14 6 -12 6 1 15 -12 20 -30 9
-36 16 -39 110 -52 83 -12 135 -36 153 -71 8 -15 27 -38 42 -50 l28 -22 -27
16 c-16 9 -28 12 -28 7 0 -10 28 -34 44 -37 6 -1 43 -7 81 -14 78 -12 129 -41
147 -82 17 -37 39 -44 146 -43 l94 0 74 80 c41 44 74 88 74 99 0 19 -11 9
-113 -105 -47 -53 -67 -58 -197 -48 -35 3 -45 8 -44 21 1 10 -1 16 -5 15 -10
-3 -69 62 -62 69 3 4 0 4 -6 0 -7 -4 -21 -3 -31 3 -9 5 -40 12 -67 14 -28 3
-52 6 -55 7 -3 1 -8 2 -12 1 -5 0 -8 2 -8 6 0 5 38 7 85 6 l85 -1 43 46 c147
157 181 192 190 192 5 0 18 10 28 23 l20 22 -3 -46 c-4 -56 11 -73 75 -89 25
-7 45 -16 42 -20 -3 -5 3 -6 14 -3 26 7 35 -12 32 -72 -2 -63 -2 -63 109 -66
l81 -2 14 -32 c7 -18 27 -43 44 -56 19 -14 31 -32 31 -45 0 -17 8 -24 31 -29
17 -4 33 -4 36 -1 4 3 12 1 19 -5 10 -8 13 5 14 63 1 40 1 85 1 101 -2 59 49
115 113 124 61 8 82 23 105 73 29 65 43 75 104 72 67 -2 115 11 151 43 37 32
41 31 83 -5 36 -32 75 -38 142 -20 20 5 52 12 71 15 19 3 49 16 65 30 17 14
47 40 68 58 38 33 46 51 25 63 -7 5 -8 3 -3 -5 5 -10 2 -9 -13 0 -12 7 -18 17
-16 21 3 5 2 7 -3 6 -13 -4 -101 52 -107 68 -3 9 -13 14 -21 10 -8 -3 -17 0
-21 6 -4 7 -3 8 4 4 7 -4 12 -3 12 3 0 5 -4 12 -9 16 -5 3 -13 20 -16 38 -16
72 -61 139 -106 156 -55 21 -152 -20 -121 -51 9 -9 12 -9 12 1 0 8 6 11 15 7
8 -3 14 0 12 7 -1 8 13 12 43 12 31 0 44 -4 42 -13 -1 -6 3 -11 9 -10 12 3 49
-40 53 -63 3 -14 11 -37 27 -76 8 -21 4 -20 -39 10 -26 19 -52 36 -57 38 -6 2
-43 27 -83 54 -65 45 -74 55 -87 99 -18 61 -60 132 -84 145 -49 27 -118 16
-150 -22 -11 -14 -33 -17 -125 -16 -106 0 -113 1 -152 29 -44 31 -60 36 -143
45 -39 4 -59 11 -69 26 -64 92 -165 139 -213 100 -21 -17 -24 -28 -24 -81 l0
-61 -35 3 -35 3 -5 82 c-6 83 -12 96 -65 147 -11 10 -39 27 -62 38 -24 10 -44
25 -44 33 -1 8 -3 20 -4 25 -1 6 -3 19 -4 31 -2 30 -55 79 -85 79 -19 0 -32
-9 -45 -31 -13 -20 -20 -26 -24 -16 -3 7 -30 27 -60 43 -55 28 -67 44 -67 92
0 13 -13 36 -29 52 -28 28 -30 29 -117 23 l-89 -5 -55 83 -55 84 -147 3 c-101
2 -149 -1 -153 -9z m84 -23 c10 -6 12 -5 7 2 -5 8 0 12 13 12 11 0 23 -4 26
-10 3 -5 12 -10 18 -10 7 0 6 4 -3 10 -10 6 -6 9 18 8 20 -1 29 -5 25 -12 -5
-8 -3 -8 8 0 8 6 31 11 52 10 35 -1 41 -6 82 -70 25 -37 45 -70 45 -72 0 -2
13 -23 29 -46 16 -24 27 -46 24 -50 -2 -5 3 -11 11 -14 17 -6 32 4 86 60 37
38 38 38 63 21 18 -11 28 -29 32 -53 10 -61 23 -82 61 -98 43 -18 66 -38 56
-49 -4 -5 -2 -5 4 -2 6 4 21 -4 34 -18 19 -20 23 -37 25 -105 4 -87 18 -113
58 -102 10 3 23 -1 28 -9 6 -10 9 -11 9 -1 0 10 7 9 30 -3 21 -11 27 -20 23
-32 -4 -10 -2 -14 4 -10 13 8 93 -66 94 -88 1 -8 3 -18 4 -22 2 -5 6 -18 10
-30 4 -13 11 -21 15 -18 5 3 11 1 14 -4 8 -13 83 -6 102 10 12 10 14 26 11 77
-8 107 17 135 93 100 33 -16 100 -79 100 -94 0 -16 51 -32 115 -37 50 -4 105
-24 105 -37 0 -4 14 -13 31 -20 40 -17 261 -18 267 -1 2 6 9 8 14 5 7 -4 8 -2
4 4 -8 14 30 36 50 28 8 -3 14 -1 14 4 0 15 33 -1 60 -29 31 -31 46 -61 60
-113 11 -39 57 -98 78 -98 6 0 12 -4 14 -8 4 -11 94 -72 106 -72 5 0 17 -9 27
-20 10 -11 22 -20 28 -20 5 0 28 -15 50 -32 23 -18 41 -31 42 -29 0 7 90 -51
93 -60 2 -5 10 -9 18 -9 20 0 17 -10 -11 -36 -72 -67 -109 -84 -192 -88 -13 0
-23 -3 -23 -6 0 -3 -12 -7 -28 -8 -19 -1 -39 9 -66 33 -22 19 -45 35 -51 35
-7 0 -33 -16 -59 -36 -48 -37 -102 -48 -156 -33 -34 9 -70 -22 -105 -91 -21
-41 -30 -51 -46 -47 -10 3 -19 1 -19 -5 0 -6 -13 -8 -29 -6 -17 2 -28 1 -25
-4 3 -4 -1 -8 -8 -8 -18 -1 -63 -40 -77 -68 -7 -13 -14 -58 -16 -100 -2 -42
-4 -80 -4 -84 -1 -10 -68 32 -102 65 -16 15 -29 37 -29 48 0 27 -31 36 -117
35 -45 -1 -74 3 -77 10 -2 6 -3 34 -1 62 2 29 0 52 -4 52 -5 0 -26 8 -47 17
-22 9 -43 16 -47 15 -4 -1 -20 4 -36 12 -26 14 -28 19 -26 70 1 30 -1 59 -4
65 -6 10 -59 -29 -123 -92 -16 -15 -34 -24 -40 -21 -7 4 -8 2 -4 -4 4 -6 -10
-30 -31 -52 -21 -23 -53 -58 -72 -78 -41 -44 -45 -45 -146 -44 -64 1 -82 4
-90 18 -42 71 -82 95 -182 108 -80 10 -91 16 -104 54 -10 31 -39 74 -39 59 0
-3 -17 -1 -37 3 -59 14 -72 -3 -74 -93 0 -11 -5 -15 -12 -10 -9 5 -9 3 0 -8 9
-11 7 -16 -12 -25 -21 -10 -26 -8 -49 28 -14 22 -23 45 -19 50 3 6 1 8 -4 5
-6 -4 -16 0 -23 8 -7 9 -21 13 -31 10 -61 -17 -56 -28 -57 115 0 93 3 130 11
130 9 0 9 2 1 8 -16 10 -16 224 0 234 8 6 8 8 -1 8 -16 0 -16 230 1 230 8 0 8
2 0 8 -16 10 -16 224 0 234 8 6 8 8 0 8 -17 0 -17 230 0 230 8 0 8 2 0 8 -16
10 -16 224 -1 234 14 8 37 6 56 -6z m405 -161 l28 3 -23 -24 c-29 -31 -40 -30
-61 6 -16 29 -16 29 5 21 13 -5 35 -7 51 -6z m390 -180 c19 -18 25 -34 22 -55
-2 -17 1 -30 5 -30 5 0 9 -6 9 -14 0 -17 39 -48 52 -40 4 3 8 0 8 -5 0 -6 6
-11 14 -11 16 0 85 -74 87 -93 1 -6 3 -35 4 -63 4 -84 11 -101 44 -106 17 -2
37 0 45 4 20 11 21 -5 2 -21 -19 -16 -77 -10 -87 9 -4 8 -10 26 -13 41 -3 14
-19 38 -35 53 -16 15 -40 37 -54 50 -13 12 -26 28 -28 34 -2 7 -28 15 -56 19
-29 3 -50 10 -47 14 3 5 -1 6 -9 3 -12 -4 -15 8 -16 62 0 36 -7 79 -14 94 -12
24 -12 30 5 53 24 33 31 33 62 2z m766 -1502 c0 -7 -39 17 -46 28 -3 6 5 3 20
-6 14 -10 26 -19 26 -22z"/>
<path d="M1027 1069 c7 -7 15 -10 18 -7 3 3 -2 9 -12 12 -14 6 -15 5 -6 -5z"/>
<path d="M1430 396 c0 -2 7 -7 16 -10 8 -3 12 -2 9 4 -6 10 -25 14 -25 6z"/>
<path d="M289 413 c-2 -60 0 -206 4 -210 3 -2 19 3 36 11 16 9 36 16 43 16 16
0 68 -72 68 -94 0 -25 18 -28 58 -7 38 19 40 23 46 81 6 56 9 60 32 60 28 0
25 15 -5 23 -28 7 -43 -7 -48 -44 -2 -19 -5 -45 -7 -58 -2 -13 -13 -29 -26
-36 -21 -11 -25 -10 -39 19 -31 59 -62 86 -90 79 -14 -3 -31 -9 -36 -14 -7 -5
-12 16 -13 62 -2 56 0 69 10 63 10 -5 11 -4 1 7 -7 7 -13 23 -13 36 0 27 -20
32 -21 6z"/>
<path d="M2471 362 c-8 -3 -24 -15 -35 -27 -28 -30 -59 -38 -132 -37 -72 1
-90 -11 -129 -88 -19 -38 -31 -50 -55 -54 -16 -3 -43 -8 -59 -12 -45 -8 -92
-57 -101 -104 -6 -31 -4 -40 6 -40 8 0 14 10 14 24 0 48 69 106 127 106 40 0
68 23 94 76 31 61 41 67 107 69 94 3 98 4 143 39 l43 35 38 -35 c28 -25 47
-34 74 -34 24 0 34 4 31 13 -2 6 -16 12 -30 12 -25 0 -90 43 -82 54 4 8 -36
10 -54 3z"/>
<path d="M1710 24 c0 -10 13 -14 39 -14 22 0 47 -3 57 -7 14 -5 15 -3 6 12
-12 23 -102 31 -102 9z"/>
</g>
</svg>
